# xmcd
#
# Track frame offsets: 
#        150
#        6378
#        18788
#        34908
#        51951
#        62409
#        71865
#        89888
#        103966
#        136502
#        154715
#        169283
#        195260
#        211162
#
# Disc length: 3029 seconds
#
# Revision: 0
# Processed by: cddbd v1.5.2PL0 Copyright (c) Steve Scherf et al.
# Submitted via: ExactAudioCopy v0.99pb4
#
DISCID=be0bd30e
DTITLE=Doyle and Debbie - The Doyle and Debbie Show
DYEAR=2006
DGENRE=Comedy
TTITLE0=Grandma Flickertail
TTITLE1=Whine Whine Twang Twang
TTITLE2=When You're Screwing Other Women (Think of Me)
TTITLE3=Stock Car Love
TTITLE4=Barefoot and Pregnant
TTITLE5=I Ain't No Homo (But Man You Sure Look Good to Me)
TTITLE6=Be Still My Heart
TTITLE7=ABC's of Love
TTITLE8=Medley
TTITLE9=For the Children
TTITLE10=Snowbanks of Life
TTITLE11=Daddy's Hair
TTITLE12=Harlequin Romance
TTITLE13=Fat Women in Trailers
EXTD=
EXTT0=
EXTT1=
EXTT2=
EXTT3=
EXTT4=
EXTT5=
EXTT6=
EXTT7=
EXTT8=
EXTT9=
EXTT10=
EXTT11=
EXTT12=
EXTT13=
PLAYORDER=
